<?xml version="1.0" encoding="utf-8"?>
<svg xmlns="http://www.w3.org/2000/svg" xmlns:xlink="http://www.w3.org/1999/xlink" width="500" height="300" viewBox="0 0 2000 1200">
<defs>
  <clipPath id="clip290">
    <rect x="0" y="0" width="2000" height="1200"/>
  </clipPath>
</defs>
<path clip-path="url(#clip290)" d="M0 1200 L2000 1200 L2000 0 L0 0  Z" fill="#ffffff" fill-rule="evenodd" fill-opacity="1"/>
<defs>
  <clipPath id="clip291">
    <rect x="400" y="0" width="1401" height="1200"/>
  </clipPath>
</defs>
<path clip-path="url(#clip290)" d="M240.79 1035.39 L1952.76 1035.39 L1952.76 117.424 L240.79 117.424  Z" fill="#ffffff" fill-rule="evenodd" fill-opacity="1"/>
<defs>
  <clipPath id="clip292">
    <rect x="240" y="117" width="1713" height="919"/>
  </clipPath>
</defs>
<polyline clip-path="url(#clip292)" style="stroke:#000000; stroke-linecap:round; stroke-linejoin:round; stroke-width:2; stroke-opacity:0.1; fill:none" points="468.693,1035.39 468.693,117.424 "/>
<polyline clip-path="url(#clip292)" style="stroke:#000000; stroke-linecap:round; stroke-linejoin:round; stroke-width:2; stroke-opacity:0.1; fill:none" points="827.596,1035.39 827.596,117.424 "/>
<polyline clip-path="url(#clip292)" style="stroke:#000000; stroke-linecap:round; stroke-linejoin:round; stroke-width:2; stroke-opacity:0.1; fill:none" points="1186.5,1035.39 1186.5,117.424 "/>
<polyline clip-path="url(#clip292)" style="stroke:#000000; stroke-linecap:round; stroke-linejoin:round; stroke-width:2; stroke-opacity:0.1; fill:none" points="1545.4,1035.39 1545.4,117.424 "/>
<polyline clip-path="url(#clip292)" style="stroke:#000000; stroke-linecap:round; stroke-linejoin:round; stroke-width:2; stroke-opacity:0.1; fill:none" points="1904.3,1035.39 1904.3,117.424 "/>
<polyline clip-path="url(#clip292)" style="stroke:#000000; stroke-linecap:round; stroke-linejoin:round; stroke-width:2; stroke-opacity:0.1; fill:none" points="468.693,1035.39 468.693,117.424 "/>
<polyline clip-path="url(#clip292)" style="stroke:#000000; stroke-linecap:round; stroke-linejoin:round; stroke-width:2; stroke-opacity:0.1; fill:none" points="827.596,1035.39 827.596,117.424 "/>
<polyline clip-path="url(#clip292)" style="stroke:#000000; stroke-linecap:round; stroke-linejoin:round; stroke-width:2; stroke-opacity:0.1; fill:none" points="1186.5,1035.39 1186.5,117.424 "/>
<polyline clip-path="url(#clip292)" style="stroke:#000000; stroke-linecap:round; stroke-linejoin:round; stroke-width:2; stroke-opacity:0.1; fill:none" points="1545.4,1035.39 1545.4,117.424 "/>
<polyline clip-path="url(#clip292)" style="stroke:#000000; stroke-linecap:round; stroke-linejoin:round; stroke-width:2; stroke-opacity:0.1; fill:none" points="1904.3,1035.39 1904.3,117.424 "/>
<polyline clip-path="url(#clip292)" style="stroke:#000000; stroke-linecap:round; stroke-linejoin:round; stroke-width:2; stroke-opacity:0.1; fill:none" points="240.79,1009.41 1952.76,1009.41 "/>
<polyline clip-path="url(#clip292)" style="stroke:#000000; stroke-linecap:round; stroke-linejoin:round; stroke-width:2; stroke-opacity:0.1; fill:none" points="240.79,790.968 1952.76,790.968 "/>
<polyline clip-path="url(#clip292)" style="stroke:#000000; stroke-linecap:round; stroke-linejoin:round; stroke-width:2; stroke-opacity:0.1; fill:none" points="240.79,572.529 1952.76,572.529 "/>
<polyline clip-path="url(#clip292)" style="stroke:#000000; stroke-linecap:round; stroke-linejoin:round; stroke-width:2; stroke-opacity:0.1; fill:none" points="240.79,354.089 1952.76,354.089 "/>
<polyline clip-path="url(#clip292)" style="stroke:#000000; stroke-linecap:round; stroke-linejoin:round; stroke-width:2; stroke-opacity:0.1; fill:none" points="240.79,135.65 1952.76,135.65 "/>
<polyline clip-path="url(#clip292)" style="stroke:#000000; stroke-linecap:round; stroke-linejoin:round; stroke-width:2; stroke-opacity:0.1; fill:none" points="240.79,1009.41 1952.76,1009.41 "/>
<polyline clip-path="url(#clip292)" style="stroke:#000000; stroke-linecap:round; stroke-linejoin:round; stroke-width:2; stroke-opacity:0.1; fill:none" points="240.79,790.968 1952.76,790.968 "/>
<polyline clip-path="url(#clip292)" style="stroke:#000000; stroke-linecap:round; stroke-linejoin:round; stroke-width:2; stroke-opacity:0.1; fill:none" points="240.79,572.529 1952.76,572.529 "/>
<polyline clip-path="url(#clip292)" style="stroke:#000000; stroke-linecap:round; stroke-linejoin:round; stroke-width:2; stroke-opacity:0.1; fill:none" points="240.79,354.089 1952.76,354.089 "/>
<polyline clip-path="url(#clip292)" style="stroke:#000000; stroke-linecap:round; stroke-linejoin:round; stroke-width:2; stroke-opacity:0.1; fill:none" points="240.79,135.65 1952.76,135.65 "/>
<polyline clip-path="url(#clip290)" style="stroke:#000000; stroke-linecap:round; stroke-linejoin:round; stroke-width:4; stroke-opacity:1; fill:none" points="240.79,1035.39 1952.76,1035.39 "/>
<polyline clip-path="url(#clip290)" style="stroke:#000000; stroke-linecap:round; stroke-linejoin:round; stroke-width:4; stroke-opacity:1; fill:none" points="240.79,117.424 1952.76,117.424 "/>
<polyline clip-path="url(#clip290)" style="stroke:#000000; stroke-linecap:round; stroke-linejoin:round; stroke-width:4; stroke-opacity:1; fill:none" points="468.693,1035.39 468.693,1016.49 "/>
<polyline clip-path="url(#clip290)" style="stroke:#000000; stroke-linecap:round; stroke-linejoin:round; stroke-width:4; stroke-opacity:1; fill:none" points="827.596,1035.39 827.596,1016.49 "/>
<polyline clip-path="url(#clip290)" style="stroke:#000000; stroke-linecap:round; stroke-linejoin:round; stroke-width:4; stroke-opacity:1; fill:none" points="1186.5,1035.39 1186.5,1016.49 "/>
<polyline clip-path="url(#clip290)" style="stroke:#000000; stroke-linecap:round; stroke-linejoin:round; stroke-width:4; stroke-opacity:1; fill:none" points="1545.4,1035.39 1545.4,1016.49 "/>
<polyline clip-path="url(#clip290)" style="stroke:#000000; stroke-linecap:round; stroke-linejoin:round; stroke-width:4; stroke-opacity:1; fill:none" points="1904.3,1035.39 1904.3,1016.49 "/>
<polyline clip-path="url(#clip290)" style="stroke:#000000; stroke-linecap:round; stroke-linejoin:round; stroke-width:4; stroke-opacity:1; fill:none" points="468.693,117.424 468.693,136.322 "/>
<polyline clip-path="url(#clip290)" style="stroke:#000000; stroke-linecap:round; stroke-linejoin:round; stroke-width:4; stroke-opacity:1; fill:none" points="827.596,117.424 827.596,136.322 "/>
<polyline clip-path="url(#clip290)" style="stroke:#000000; stroke-linecap:round; stroke-linejoin:round; stroke-width:4; stroke-opacity:1; fill:none" points="1186.5,117.424 1186.5,136.322 "/>
<polyline clip-path="url(#clip290)" style="stroke:#000000; stroke-linecap:round; stroke-linejoin:round; stroke-width:4; stroke-opacity:1; fill:none" points="1545.4,117.424 1545.4,136.322 "/>
<polyline clip-path="url(#clip290)" style="stroke:#000000; stroke-linecap:round; stroke-linejoin:round; stroke-width:4; stroke-opacity:1; fill:none" points="1904.3,117.424 1904.3,136.322 "/>
<path clip-path="url(#clip290)" d="M463.346 1090.65 L479.665 1090.65 L479.665 1094.59 L457.721 1094.59 L457.721 1090.65 Q460.383 1087.9 464.966 1083.27 Q469.573 1078.62 470.753 1077.27 Q472.999 1074.75 473.878 1073.01 Q474.781 1071.25 474.781 1069.56 Q474.781 1066.81 472.837 1065.07 Q470.915 1063.34 467.814 1063.34 Q465.615 1063.34 463.161 1064.1 Q460.73 1064.87 457.953 1066.42 L457.953 1061.69 Q460.777 1060.56 463.23 1059.98 Q465.684 1059.4 467.721 1059.4 Q473.091 1059.4 476.286 1062.09 Q479.48 1064.77 479.48 1069.26 Q479.48 1071.39 478.67 1073.31 Q477.883 1075.21 475.777 1077.81 Q475.198 1078.48 472.096 1081.69 Q468.994 1084.89 463.346 1090.65 Z" fill="#000000" fill-rule="nonzero" fill-opacity="1" /><path clip-path="url(#clip290)" d="M830.605 1064.1 L818.8 1082.55 L830.605 1082.55 L830.605 1064.1 M829.378 1060.03 L835.258 1060.03 L835.258 1082.55 L840.188 1082.55 L840.188 1086.44 L835.258 1086.44 L835.258 1094.59 L830.605 1094.59 L830.605 1086.44 L815.003 1086.44 L815.003 1081.93 L829.378 1060.03 Z" fill="#000000" fill-rule="nonzero" fill-opacity="1" /><path clip-path="url(#clip290)" d="M1186.9 1075.44 Q1183.76 1075.44 1181.9 1077.6 Q1180.08 1079.75 1180.08 1083.5 Q1180.08 1087.23 1181.9 1089.4 Q1183.76 1091.56 1186.9 1091.56 Q1190.05 1091.56 1191.88 1089.4 Q1193.73 1087.23 1193.73 1083.5 Q1193.73 1079.75 1191.88 1077.6 Q1190.05 1075.44 1186.9 1075.44 M1196.19 1060.79 L1196.19 1065.05 Q1194.43 1064.22 1192.62 1063.78 Q1190.84 1063.34 1189.08 1063.34 Q1184.45 1063.34 1182 1066.46 Q1179.57 1069.59 1179.22 1075.91 Q1180.58 1073.89 1182.64 1072.83 Q1184.7 1071.74 1187.18 1071.74 Q1192.39 1071.74 1195.4 1074.91 Q1198.43 1078.06 1198.43 1083.5 Q1198.43 1088.82 1195.28 1092.04 Q1192.14 1095.26 1186.9 1095.26 Q1180.91 1095.26 1177.74 1090.68 Q1174.57 1086.07 1174.57 1077.34 Q1174.57 1069.15 1178.45 1064.29 Q1182.34 1059.4 1188.89 1059.4 Q1190.65 1059.4 1192.44 1059.75 Q1194.24 1060.1 1196.19 1060.79 Z" fill="#000000" fill-rule="nonzero" fill-opacity="1" /><path clip-path="url(#clip290)" d="M1545.4 1078.18 Q1542.07 1078.18 1540.15 1079.96 Q1538.25 1081.74 1538.25 1084.87 Q1538.25 1087.99 1540.15 1089.77 Q1542.07 1091.56 1545.4 1091.56 Q1548.73 1091.56 1550.66 1089.77 Q1552.58 1087.97 1552.58 1084.87 Q1552.58 1081.74 1550.66 1079.96 Q1548.76 1078.18 1545.4 1078.18 M1540.73 1076.19 Q1537.72 1075.44 1536.03 1073.38 Q1534.36 1071.32 1534.36 1068.36 Q1534.36 1064.22 1537.3 1061.81 Q1540.26 1059.4 1545.4 1059.4 Q1550.56 1059.4 1553.5 1061.81 Q1556.44 1064.22 1556.44 1068.36 Q1556.44 1071.32 1554.75 1073.38 Q1553.09 1075.44 1550.1 1076.19 Q1553.48 1076.97 1555.35 1079.26 Q1557.25 1081.56 1557.25 1084.87 Q1557.25 1089.89 1554.17 1092.57 Q1551.12 1095.26 1545.4 1095.26 Q1539.68 1095.26 1536.61 1092.57 Q1533.55 1089.89 1533.55 1084.87 Q1533.55 1081.56 1535.45 1079.26 Q1537.35 1076.97 1540.73 1076.19 M1539.01 1068.8 Q1539.01 1071.49 1540.68 1072.99 Q1542.37 1074.5 1545.4 1074.5 Q1548.41 1074.5 1550.1 1072.99 Q1551.81 1071.49 1551.81 1068.8 Q1551.81 1066.12 1550.1 1064.61 Q1548.41 1063.11 1545.4 1063.11 Q1542.37 1063.11 1540.68 1064.61 Q1539.01 1066.12 1539.01 1068.8 Z" fill="#000000" fill-rule="nonzero" fill-opacity="1" /><path clip-path="url(#clip290)" d="M1878.99 1090.65 L1886.63 1090.65 L1886.63 1064.29 L1878.32 1065.95 L1878.32 1061.69 L1886.58 1060.03 L1891.26 1060.03 L1891.26 1090.65 L1898.9 1090.65 L1898.9 1094.59 L1878.99 1094.59 L1878.99 1090.65 Z" fill="#000000" fill-rule="nonzero" fill-opacity="1" /><path clip-path="url(#clip290)" d="M1918.34 1063.11 Q1914.73 1063.11 1912.9 1066.67 Q1911.1 1070.21 1911.1 1077.34 Q1911.1 1084.45 1912.9 1088.01 Q1914.73 1091.56 1918.34 1091.56 Q1921.98 1091.56 1923.78 1088.01 Q1925.61 1084.45 1925.61 1077.34 Q1925.61 1070.21 1923.78 1066.67 Q1921.98 1063.11 1918.34 1063.11 M1918.34 1059.4 Q1924.15 1059.4 1927.21 1064.01 Q1930.29 1068.59 1930.29 1077.34 Q1930.29 1086.07 1927.21 1090.68 Q1924.15 1095.26 1918.34 1095.26 Q1912.53 1095.26 1909.45 1090.68 Q1906.4 1086.07 1906.4 1077.34 Q1906.4 1068.59 1909.45 1064.01 Q1912.53 1059.4 1918.34 1059.4 Z" fill="#000000" fill-rule="nonzero" fill-opacity="1" /><path clip-path="url(#clip290)" d="M1068.67 1128.29 L1068.67 1134.56 Q1065.01 1132.81 1061.76 1131.95 Q1058.52 1131.09 1055.49 1131.09 Q1050.24 1131.09 1047.38 1133.13 Q1044.54 1135.17 1044.54 1138.92 Q1044.54 1142.07 1046.42 1143.7 Q1048.33 1145.29 1053.61 1146.27 L1057.5 1147.07 Q1064.69 1148.44 1068.1 1151.91 Q1071.53 1155.35 1071.53 1161.14 Q1071.53 1168.05 1066.89 1171.61 Q1062.27 1175.17 1053.33 1175.17 Q1049.95 1175.17 1046.13 1174.41 Q1042.35 1173.65 1038.27 1172.15 L1038.27 1165.53 Q1042.19 1167.73 1045.94 1168.84 Q1049.7 1169.95 1053.33 1169.95 Q1058.83 1169.95 1061.83 1167.79 Q1064.82 1165.63 1064.82 1161.62 Q1064.82 1158.11 1062.65 1156.14 Q1060.52 1154.17 1055.62 1153.18 L1051.7 1152.42 Q1044.51 1150.99 1041.3 1147.93 Q1038.08 1144.87 1038.08 1139.43 Q1038.08 1133.13 1042.51 1129.5 Q1046.96 1125.87 1054.76 1125.87 Q1058.1 1125.87 1061.57 1126.48 Q1065.04 1127.08 1068.67 1128.29 Z" fill="#000000" fill-rule="nonzero" fill-opacity="1" /><path clip-path="url(#clip290)" d="M1081.3 1138.6 L1087.16 1138.6 L1087.16 1174.25 L1081.3 1174.25 L1081.3 1138.6 M1081.3 1124.73 L1087.16 1124.73 L1087.16 1132.14 L1081.3 1132.14 L1081.3 1124.73 Z" fill="#000000" fill-rule="nonzero" fill-opacity="1" /><path clip-path="url(#clip290)" d="M1105.21 1128.48 L1105.21 1138.6 L1117.27 1138.6 L1117.27 1143.16 L1105.21 1143.16 L1105.21 1162.51 Q1105.21 1166.87 1106.39 1168.11 Q1107.59 1169.35 1111.25 1169.35 L1117.27 1169.35 L1117.27 1174.25 L1111.25 1174.25 Q1104.48 1174.25 1101.9 1171.74 Q1099.32 1169.19 1099.32 1162.51 L1099.32 1143.16 L1095.02 1143.16 L1095.02 1138.6 L1099.32 1138.6 L1099.32 1128.48 L1105.21 1128.48 Z" fill="#000000" fill-rule="nonzero" fill-opacity="1" /><path clip-path="url(#clip290)" d="M1155.46 1154.96 L1155.46 1157.83 L1128.54 1157.83 Q1128.92 1163.88 1132.17 1167.06 Q1135.44 1170.21 1141.27 1170.21 Q1144.64 1170.21 1147.79 1169.38 Q1150.98 1168.55 1154.1 1166.9 L1154.1 1172.44 Q1150.95 1173.77 1147.63 1174.47 Q1144.32 1175.17 1140.92 1175.17 Q1132.39 1175.17 1127.39 1170.21 Q1122.43 1165.24 1122.43 1156.78 Q1122.43 1148.03 1127.14 1142.9 Q1131.88 1137.74 1139.9 1137.74 Q1147.09 1137.74 1151.26 1142.39 Q1155.46 1147.01 1155.46 1154.96 M1149.61 1153.25 Q1149.54 1148.44 1146.9 1145.57 Q1144.29 1142.71 1139.96 1142.71 Q1135.06 1142.71 1132.1 1145.48 Q1129.17 1148.25 1128.73 1153.28 L1149.61 1153.25 Z" fill="#000000" fill-rule="nonzero" fill-opacity="1" /><polyline clip-path="url(#clip290)" style="stroke:#000000; stroke-linecap:round; stroke-linejoin:round; stroke-width:4; stroke-opacity:1; fill:none" points="240.79,1035.39 240.79,117.424 "/>
<polyline clip-path="url(#clip290)" style="stroke:#000000; stroke-linecap:round; stroke-linejoin:round; stroke-width:4; stroke-opacity:1; fill:none" points="1952.76,1035.39 1952.76,117.424 "/>
<polyline clip-path="url(#clip290)" style="stroke:#000000; stroke-linecap:round; stroke-linejoin:round; stroke-width:4; stroke-opacity:1; fill:none" points="240.79,1009.41 259.688,1009.41 "/>
<polyline clip-path="url(#clip290)" style="stroke:#000000; stroke-linecap:round; stroke-linejoin:round; stroke-width:4; stroke-opacity:1; fill:none" points="240.79,790.968 259.688,790.968 "/>
<polyline clip-path="url(#clip290)" style="stroke:#000000; stroke-linecap:round; stroke-linejoin:round; stroke-width:4; stroke-opacity:1; fill:none" points="240.79,572.529 259.688,572.529 "/>
<polyline clip-path="url(#clip290)" style="stroke:#000000; stroke-linecap:round; stroke-linejoin:round; stroke-width:4; stroke-opacity:1; fill:none" points="240.79,354.089 259.688,354.089 "/>
<polyline clip-path="url(#clip290)" style="stroke:#000000; stroke-linecap:round; stroke-linejoin:round; stroke-width:4; stroke-opacity:1; fill:none" points="240.79,135.65 259.688,135.65 "/>
<polyline clip-path="url(#clip290)" style="stroke:#000000; stroke-linecap:round; stroke-linejoin:round; stroke-width:4; stroke-opacity:1; fill:none" points="1952.76,1009.41 1933.86,1009.41 "/>
<polyline clip-path="url(#clip290)" style="stroke:#000000; stroke-linecap:round; stroke-linejoin:round; stroke-width:4; stroke-opacity:1; fill:none" points="1952.76,790.968 1933.86,790.968 "/>
<polyline clip-path="url(#clip290)" style="stroke:#000000; stroke-linecap:round; stroke-linejoin:round; stroke-width:4; stroke-opacity:1; fill:none" points="1952.76,572.529 1933.86,572.529 "/>
<polyline clip-path="url(#clip290)" style="stroke:#000000; stroke-linecap:round; stroke-linejoin:round; stroke-width:4; stroke-opacity:1; fill:none" points="1952.76,354.089 1933.86,354.089 "/>
<polyline clip-path="url(#clip290)" style="stroke:#000000; stroke-linecap:round; stroke-linejoin:round; stroke-width:4; stroke-opacity:1; fill:none" points="1952.76,135.65 1933.86,135.65 "/>
<path clip-path="url(#clip290)" d="M123.453 995.206 Q119.841 995.206 118.013 998.771 Q116.207 1002.31 116.207 1009.44 Q116.207 1016.55 118.013 1020.11 Q119.841 1023.66 123.453 1023.66 Q127.087 1023.66 128.892 1020.11 Q130.721 1016.55 130.721 1009.44 Q130.721 1002.31 128.892 998.771 Q127.087 995.206 123.453 995.206 M123.453 991.503 Q129.263 991.503 132.318 996.109 Q135.397 1000.69 135.397 1009.44 Q135.397 1018.17 132.318 1022.78 Q129.263 1027.36 123.453 1027.36 Q117.642 1027.36 114.564 1022.78 Q111.508 1018.17 111.508 1009.44 Q111.508 1000.69 114.564 996.109 Q117.642 991.503 123.453 991.503 Z" fill="#000000" fill-rule="nonzero" fill-opacity="1" /><path clip-path="url(#clip290)" d="M143.614 1020.81 L148.499 1020.81 L148.499 1026.69 L143.614 1026.69 L143.614 1020.81 Z" fill="#000000" fill-rule="nonzero" fill-opacity="1" /><path clip-path="url(#clip290)" d="M168.684 995.206 Q165.073 995.206 163.244 998.771 Q161.438 1002.31 161.438 1009.44 Q161.438 1016.55 163.244 1020.11 Q165.073 1023.66 168.684 1023.66 Q172.318 1023.66 174.124 1020.11 Q175.952 1016.55 175.952 1009.44 Q175.952 1002.31 174.124 998.771 Q172.318 995.206 168.684 995.206 M168.684 991.503 Q174.494 991.503 177.549 996.109 Q180.628 1000.69 180.628 1009.44 Q180.628 1018.17 177.549 1022.78 Q174.494 1027.36 168.684 1027.36 Q162.874 1027.36 159.795 1022.78 Q156.739 1018.17 156.739 1009.44 Q156.739 1000.69 159.795 996.109 Q162.874 991.503 168.684 991.503 Z" fill="#000000" fill-rule="nonzero" fill-opacity="1" /><path clip-path="url(#clip290)" d="M198.846 995.206 Q195.235 995.206 193.406 998.771 Q191.6 1002.31 191.6 1009.44 Q191.6 1016.55 193.406 1020.11 Q195.235 1023.66 198.846 1023.66 Q202.48 1023.66 204.285 1020.11 Q206.114 1016.55 206.114 1009.44 Q206.114 1002.31 204.285 998.771 Q202.48 995.206 198.846 995.206 M198.846 991.503 Q204.656 991.503 207.711 996.109 Q210.79 1000.69 210.79 1009.44 Q210.79 1018.17 207.711 1022.78 Q204.656 1027.36 198.846 1027.36 Q193.035 1027.36 189.957 1022.78 Q186.901 1018.17 186.901 1009.44 Q186.901 1000.69 189.957 996.109 Q193.035 991.503 198.846 991.503 Z" fill="#000000" fill-rule="nonzero" fill-opacity="1" /><path clip-path="url(#clip290)" d="M124.448 776.767 Q120.837 776.767 119.008 780.332 Q117.203 783.873 117.203 791.003 Q117.203 798.109 119.008 801.674 Q120.837 805.216 124.448 805.216 Q128.082 805.216 129.888 801.674 Q131.716 798.109 131.716 791.003 Q131.716 783.873 129.888 780.332 Q128.082 776.767 124.448 776.767 M124.448 773.063 Q130.258 773.063 133.314 777.67 Q136.392 782.253 136.392 791.003 Q136.392 799.73 133.314 804.336 Q130.258 808.92 124.448 808.92 Q118.638 808.92 115.559 804.336 Q112.504 799.73 112.504 791.003 Q112.504 782.253 115.559 777.67 Q118.638 773.063 124.448 773.063 Z" fill="#000000" fill-rule="nonzero" fill-opacity="1" /><path clip-path="url(#clip290)" d="M144.61 802.369 L149.494 802.369 L149.494 808.248 L144.61 808.248 L144.61 802.369 Z" fill="#000000" fill-rule="nonzero" fill-opacity="1" /><path clip-path="url(#clip290)" d="M163.707 804.313 L180.026 804.313 L180.026 808.248 L158.082 808.248 L158.082 804.313 Q160.744 801.559 165.327 796.929 Q169.934 792.276 171.114 790.934 Q173.36 788.41 174.239 786.674 Q175.142 784.915 175.142 783.225 Q175.142 780.471 173.198 778.735 Q171.276 776.998 168.175 776.998 Q165.975 776.998 163.522 777.762 Q161.091 778.526 158.313 780.077 L158.313 775.355 Q161.138 774.221 163.591 773.642 Q166.045 773.063 168.082 773.063 Q173.452 773.063 176.647 775.748 Q179.841 778.434 179.841 782.924 Q179.841 785.054 179.031 786.975 Q178.244 788.873 176.137 791.466 Q175.559 792.137 172.457 795.355 Q169.355 798.549 163.707 804.313 Z" fill="#000000" fill-rule="nonzero" fill-opacity="1" /><path clip-path="url(#clip290)" d="M189.887 773.688 L208.244 773.688 L208.244 777.623 L194.17 777.623 L194.17 786.096 Q195.188 785.748 196.207 785.586 Q197.225 785.401 198.244 785.401 Q204.031 785.401 207.41 788.573 Q210.79 791.744 210.79 797.16 Q210.79 802.739 207.318 805.841 Q203.846 808.92 197.526 808.92 Q195.35 808.92 193.082 808.549 Q190.836 808.179 188.429 807.438 L188.429 802.739 Q190.512 803.873 192.735 804.429 Q194.957 804.984 197.434 804.984 Q201.438 804.984 203.776 802.878 Q206.114 800.772 206.114 797.16 Q206.114 793.549 203.776 791.443 Q201.438 789.336 197.434 789.336 Q195.559 789.336 193.684 789.753 Q191.832 790.17 189.887 791.049 L189.887 773.688 Z" fill="#000000" fill-rule="nonzero" fill-opacity="1" /><path clip-path="url(#clip290)" d="M123.453 558.328 Q119.841 558.328 118.013 561.892 Q116.207 565.434 116.207 572.564 Q116.207 579.67 118.013 583.235 Q119.841 586.777 123.453 586.777 Q127.087 586.777 128.892 583.235 Q130.721 579.67 130.721 572.564 Q130.721 565.434 128.892 561.892 Q127.087 558.328 123.453 558.328 M123.453 554.624 Q129.263 554.624 132.318 559.23 Q135.397 563.814 135.397 572.564 Q135.397 581.29 132.318 585.897 Q129.263 590.48 123.453 590.48 Q117.642 590.48 114.564 585.897 Q111.508 581.29 111.508 572.564 Q111.508 563.814 114.564 559.23 Q117.642 554.624 123.453 554.624 Z" fill="#000000" fill-rule="nonzero" fill-opacity="1" /><path clip-path="url(#clip290)" d="M143.614 583.929 L148.499 583.929 L148.499 589.809 L143.614 589.809 L143.614 583.929 Z" fill="#000000" fill-rule="nonzero" fill-opacity="1" /><path clip-path="url(#clip290)" d="M158.73 555.249 L177.087 555.249 L177.087 559.184 L163.013 559.184 L163.013 567.656 Q164.031 567.309 165.05 567.147 Q166.068 566.962 167.087 566.962 Q172.874 566.962 176.253 570.133 Q179.633 573.304 179.633 578.721 Q179.633 584.3 176.161 587.402 Q172.688 590.48 166.369 590.48 Q164.193 590.48 161.925 590.11 Q159.679 589.739 157.272 588.999 L157.272 584.3 Q159.355 585.434 161.577 585.989 Q163.8 586.545 166.276 586.545 Q170.281 586.545 172.619 584.439 Q174.957 582.332 174.957 578.721 Q174.957 575.11 172.619 573.003 Q170.281 570.897 166.276 570.897 Q164.401 570.897 162.526 571.314 Q160.675 571.73 158.73 572.61 L158.73 555.249 Z" fill="#000000" fill-rule="nonzero" fill-opacity="1" /><path clip-path="url(#clip290)" d="M198.846 558.328 Q195.235 558.328 193.406 561.892 Q191.6 565.434 191.6 572.564 Q191.6 579.67 193.406 583.235 Q195.235 586.777 198.846 586.777 Q202.48 586.777 204.285 583.235 Q206.114 579.67 206.114 572.564 Q206.114 565.434 204.285 561.892 Q202.48 558.328 198.846 558.328 M198.846 554.624 Q204.656 554.624 207.711 559.23 Q210.79 563.814 210.79 572.564 Q210.79 581.29 207.711 585.897 Q204.656 590.48 198.846 590.48 Q193.035 590.48 189.957 585.897 Q186.901 581.29 186.901 572.564 Q186.901 563.814 189.957 559.23 Q193.035 554.624 198.846 554.624 Z" fill="#000000" fill-rule="nonzero" fill-opacity="1" /><path clip-path="url(#clip290)" d="M124.448 339.888 Q120.837 339.888 119.008 343.453 Q117.203 346.995 117.203 354.124 Q117.203 361.231 119.008 364.795 Q120.837 368.337 124.448 368.337 Q128.082 368.337 129.888 364.795 Q131.716 361.231 131.716 354.124 Q131.716 346.995 129.888 343.453 Q128.082 339.888 124.448 339.888 M124.448 336.185 Q130.258 336.185 133.314 340.791 Q136.392 345.374 136.392 354.124 Q136.392 362.851 133.314 367.457 Q130.258 372.041 124.448 372.041 Q118.638 372.041 115.559 367.457 Q112.504 362.851 112.504 354.124 Q112.504 345.374 115.559 340.791 Q118.638 336.185 124.448 336.185 Z" fill="#000000" fill-rule="nonzero" fill-opacity="1" /><path clip-path="url(#clip290)" d="M144.61 365.49 L149.494 365.49 L149.494 371.369 L144.61 371.369 L144.61 365.49 Z" fill="#000000" fill-rule="nonzero" fill-opacity="1" /><path clip-path="url(#clip290)" d="M158.499 336.809 L180.721 336.809 L180.721 338.8 L168.175 371.369 L163.29 371.369 L175.096 340.745 L158.499 340.745 L158.499 336.809 Z" fill="#000000" fill-rule="nonzero" fill-opacity="1" /><path clip-path="url(#clip290)" d="M189.887 336.809 L208.244 336.809 L208.244 340.745 L194.17 340.745 L194.17 349.217 Q195.188 348.87 196.207 348.708 Q197.225 348.522 198.244 348.522 Q204.031 348.522 207.41 351.694 Q210.79 354.865 210.79 360.282 Q210.79 365.86 207.318 368.962 Q203.846 372.041 197.526 372.041 Q195.35 372.041 193.082 371.67 Q190.836 371.3 188.429 370.559 L188.429 365.86 Q190.512 366.995 192.735 367.55 Q194.957 368.106 197.434 368.106 Q201.438 368.106 203.776 365.999 Q206.114 363.893 206.114 360.282 Q206.114 356.671 203.776 354.564 Q201.438 352.458 197.434 352.458 Q195.559 352.458 193.684 352.874 Q191.832 353.291 189.887 354.171 L189.887 336.809 Z" fill="#000000" fill-rule="nonzero" fill-opacity="1" /><path clip-path="url(#clip290)" d="M114.263 148.995 L121.902 148.995 L121.902 122.629 L113.591 124.296 L113.591 120.037 L121.855 118.37 L126.531 118.37 L126.531 148.995 L134.17 148.995 L134.17 152.93 L114.263 152.93 L114.263 148.995 Z" fill="#000000" fill-rule="nonzero" fill-opacity="1" /><path clip-path="url(#clip290)" d="M143.614 147.05 L148.499 147.05 L148.499 152.93 L143.614 152.93 L143.614 147.05 Z" fill="#000000" fill-rule="nonzero" fill-opacity="1" /><path clip-path="url(#clip290)" d="M168.684 121.449 Q165.073 121.449 163.244 125.014 Q161.438 128.555 161.438 135.685 Q161.438 142.791 163.244 146.356 Q165.073 149.898 168.684 149.898 Q172.318 149.898 174.124 146.356 Q175.952 142.791 175.952 135.685 Q175.952 128.555 174.124 125.014 Q172.318 121.449 168.684 121.449 M168.684 117.745 Q174.494 117.745 177.549 122.352 Q180.628 126.935 180.628 135.685 Q180.628 144.412 177.549 149.018 Q174.494 153.601 168.684 153.601 Q162.874 153.601 159.795 149.018 Q156.739 144.412 156.739 135.685 Q156.739 126.935 159.795 122.352 Q162.874 117.745 168.684 117.745 Z" fill="#000000" fill-rule="nonzero" fill-opacity="1" /><path clip-path="url(#clip290)" d="M198.846 121.449 Q195.235 121.449 193.406 125.014 Q191.6 128.555 191.6 135.685 Q191.6 142.791 193.406 146.356 Q195.235 149.898 198.846 149.898 Q202.48 149.898 204.285 146.356 Q206.114 142.791 206.114 135.685 Q206.114 128.555 204.285 125.014 Q202.48 121.449 198.846 121.449 M198.846 117.745 Q204.656 117.745 207.711 122.352 Q210.79 126.935 210.79 135.685 Q210.79 144.412 207.711 149.018 Q204.656 153.601 198.846 153.601 Q193.035 153.601 189.957 149.018 Q186.901 144.412 186.901 135.685 Q186.901 126.935 189.957 122.352 Q193.035 117.745 198.846 117.745 Z" fill="#000000" fill-rule="nonzero" fill-opacity="1" /><path clip-path="url(#clip290)" d="M17.4405 705.837 L82.6253 705.837 L82.6253 711.248 L17.4405 711.248 L17.4405 705.837 Z" fill="#000000" fill-rule="nonzero" fill-opacity="1" /><path clip-path="url(#clip290)" d="M17.4405 683.875 L82.6253 683.875 L82.6253 689.286 L17.4405 689.286 L17.4405 683.875 Z" fill="#000000" fill-rule="nonzero" fill-opacity="1" /><path clip-path="url(#clip290)" d="M37.206 664.11 L59.2314 656.312 L31.6042 645.172 L31.6042 638.965 L67.2522 653.383 L80.8111 653.383 L80.8111 659.24 L67.2522 659.24 L40.6435 668.597 Q36.6331 669.998 36.6331 673.021 L36.6331 674.581 L31.6042 674.581 L31.6042 672.353 Q31.6042 666.083 37.206 664.11 Z" fill="#000000" fill-rule="nonzero" fill-opacity="1" /><path clip-path="url(#clip290)" d="M47.2957 633.14 L47.2957 629.448 L67.2522 629.448 L67.2522 633.14 L47.2957 633.14 M39.5295 633.14 L39.5295 629.448 L43.6672 629.448 L43.6672 633.14 L39.5295 633.14 Z" fill="#000000" fill-rule="nonzero" fill-opacity="1" /><path clip-path="url(#clip290)" d="M17.4405 611.688 L82.6253 611.688 L82.6253 617.099 L17.4405 617.099 L17.4405 611.688 Z" fill="#000000" fill-rule="nonzero" fill-opacity="1" /><path clip-path="url(#clip290)" d="M17.4405 589.726 L82.6253 589.726 L82.6253 595.137 L17.4405 595.137 L17.4405 589.726 Z" fill="#000000" fill-rule="nonzero" fill-opacity="1" /><path clip-path="url(#clip290)" d="M19.7322 544.18 L19.7322 538.769 L73.2996 555.32 L73.2996 560.73 L19.7322 544.18 Z" fill="#000000" fill-rule="nonzero" fill-opacity="1" /><path clip-path="url(#clip290)" d="M14.385 482.528 L14.385 476.512 L17.4405 476.512 L17.4405 480.172 L68.5571 499.079 L68.5571 501.179 L40.4525 511.333 L41.8848 515.311 L39.3385 516.107 L36.2193 507.099 L58.7858 498.951 L14.385 482.528 Z" fill="#000000" fill-rule="nonzero" fill-opacity="1" /><path clip-path="url(#clip290)" d="M61.8413 464.004 L61.8413 441.564 L67.2522 441.564 L67.2522 471.738 L61.8413 471.738 Q58.0537 468.078 51.688 461.776 Q45.2905 455.442 43.4444 453.818 Q39.9751 450.731 37.588 449.522 Q35.169 448.28 32.8455 448.28 Q29.0579 448.28 26.6708 450.954 Q24.2836 453.596 24.2836 457.861 Q24.2836 460.884 25.334 464.258 Q26.3843 467.6 28.5168 471.42 L22.0238 471.42 Q20.4642 467.536 19.6685 464.163 Q18.8728 460.789 18.8728 457.988 Q18.8728 450.604 22.5649 446.211 Q26.257 441.819 32.4317 441.819 Q35.36 441.819 38.0017 442.933 Q40.6117 444.015 44.1765 446.912 Q45.0995 447.707 49.5237 451.972 Q53.916 456.237 61.8413 464.004 Z" fill="#000000" fill-rule="nonzero" fill-opacity="1" /><path clip-path="url(#clip290)" d="M736.749 12.096 L748.942 12.096 L764.376 53.2532 L779.891 12.096 L792.084 12.096 L792.084 72.576 L784.104 72.576 L784.104 19.4686 L768.508 60.9499 L760.285 60.9499 L744.689 19.4686 L744.689 72.576 L736.749 72.576 L736.749 12.096 Z" fill="#000000" fill-rule="nonzero" fill-opacity="1" /><path clip-path="url(#clip290)" d="M828.623 49.7694 Q819.59 49.7694 816.106 51.8354 Q812.622 53.9013 812.622 58.8839 Q812.622 62.8538 815.215 65.2034 Q817.848 67.5124 822.344 67.5124 Q828.542 67.5124 832.269 63.1374 Q836.037 58.7219 836.037 51.4303 L836.037 49.7694 L828.623 49.7694 M843.49 46.6907 L843.49 72.576 L836.037 72.576 L836.037 65.6895 Q833.484 69.8214 829.677 71.8063 Q825.869 73.7508 820.36 73.7508 Q813.392 73.7508 809.26 69.8619 Q805.169 65.9325 805.169 59.3701 Q805.169 51.7138 810.273 47.825 Q815.417 43.9361 825.585 43.9361 L836.037 43.9361 L836.037 43.2069 Q836.037 38.0623 832.634 35.2672 Q829.272 32.4315 823.155 32.4315 Q819.266 32.4315 815.579 33.3632 Q811.893 34.295 808.49 36.1584 L808.49 29.2718 Q812.582 27.692 816.43 26.9223 Q820.279 26.1121 823.924 26.1121 Q833.768 26.1121 838.629 31.2163 Q843.49 36.3204 843.49 46.6907 Z" fill="#000000" fill-rule="nonzero" fill-opacity="1" /><path clip-path="url(#clip290)" d="M858.843 27.2059 L866.297 27.2059 L866.297 73.3862 Q866.297 82.0551 862.975 85.944 Q859.694 89.8329 852.362 89.8329 L849.526 89.8329 L849.526 83.5134 L851.511 83.5134 Q855.764 83.5134 857.304 81.5285 Q858.843 79.5841 858.843 73.3862 L858.843 27.2059 M858.843 9.54393 L866.297 9.54393 L866.297 18.9825 L858.843 18.9825 L858.843 9.54393 Z" fill="#000000" fill-rule="nonzero" fill-opacity="1" /><path clip-path="url(#clip290)" d="M899.474 32.4315 Q893.478 32.4315 889.995 37.1306 Q886.511 41.7891 886.511 49.9314 Q886.511 58.0738 889.954 62.7728 Q893.438 67.4314 899.474 67.4314 Q905.429 67.4314 908.912 62.7323 Q912.396 58.0333 912.396 49.9314 Q912.396 41.8701 908.912 37.1711 Q905.429 32.4315 899.474 32.4315 M899.474 26.1121 Q909.196 26.1121 914.746 32.4315 Q920.295 38.7509 920.295 49.9314 Q920.295 61.0714 914.746 67.4314 Q909.196 73.7508 899.474 73.7508 Q889.711 73.7508 884.161 67.4314 Q878.652 61.0714 878.652 49.9314 Q878.652 38.7509 884.161 32.4315 Q889.711 26.1121 899.474 26.1121 Z" fill="#000000" fill-rule="nonzero" fill-opacity="1" /><path clip-path="url(#clip290)" d="M958.941 34.1734 Q957.685 33.4443 956.186 33.1202 Q954.728 32.7556 952.946 32.7556 Q946.626 32.7556 943.223 36.8875 Q939.861 40.9789 939.861 48.6757 L939.861 72.576 L932.367 72.576 L932.367 27.2059 L939.861 27.2059 L939.861 34.2544 Q942.211 30.1225 945.978 28.1376 Q949.745 26.1121 955.133 26.1121 Q955.903 26.1121 956.834 26.2337 Q957.766 26.3147 958.9 26.5172 L958.941 34.1734 Z" fill="#000000" fill-rule="nonzero" fill-opacity="1" /><path clip-path="url(#clip290)" d="M987.378 49.7694 Q978.345 49.7694 974.861 51.8354 Q971.377 53.9013 971.377 58.8839 Q971.377 62.8538 973.97 65.2034 Q976.603 67.5124 981.099 67.5124 Q987.297 67.5124 991.024 63.1374 Q994.791 58.7219 994.791 51.4303 L994.791 49.7694 L987.378 49.7694 M1002.25 46.6907 L1002.25 72.576 L994.791 72.576 L994.791 65.6895 Q992.239 69.8214 988.432 71.8063 Q984.624 73.7508 979.114 73.7508 Q972.147 73.7508 968.015 69.8619 Q963.924 65.9325 963.924 59.3701 Q963.924 51.7138 969.028 47.825 Q974.172 43.9361 984.34 43.9361 L994.791 43.9361 L994.791 43.2069 Q994.791 38.0623 991.389 35.2672 Q988.026 32.4315 981.91 32.4315 Q978.021 32.4315 974.334 33.3632 Q970.648 34.295 967.245 36.1584 L967.245 29.2718 Q971.337 27.692 975.185 26.9223 Q979.033 26.1121 982.679 26.1121 Q992.523 26.1121 997.384 31.2163 Q1002.25 36.3204 1002.25 46.6907 Z" fill="#000000" fill-rule="nonzero" fill-opacity="1" /><path clip-path="url(#clip290)" d="M1055.31 45.1919 L1055.31 72.576 L1047.86 72.576 L1047.86 45.4349 Q1047.86 38.994 1045.35 35.7938 Q1042.84 32.5936 1037.81 32.5936 Q1031.78 32.5936 1028.29 36.4419 Q1024.81 40.2903 1024.81 46.9338 L1024.81 72.576 L1017.31 72.576 L1017.31 27.2059 L1024.81 27.2059 L1024.81 34.2544 Q1027.48 30.163 1031.09 28.1376 Q1034.73 26.1121 1039.47 26.1121 Q1047.29 26.1121 1051.3 30.9732 Q1055.31 35.7938 1055.31 45.1919 Z" fill="#000000" fill-rule="nonzero" fill-opacity="1" /><path clip-path="url(#clip290)" d="M1090.8 49.7694 Q1081.76 49.7694 1078.28 51.8354 Q1074.8 53.9013 1074.8 58.8839 Q1074.8 62.8538 1077.39 65.2034 Q1080.02 67.5124 1084.52 67.5124 Q1090.72 67.5124 1094.44 63.1374 Q1098.21 58.7219 1098.21 51.4303 L1098.21 49.7694 L1090.8 49.7694 M1105.66 46.6907 L1105.66 72.576 L1098.21 72.576 L1098.21 65.6895 Q1095.66 69.8214 1091.85 71.8063 Q1088.04 73.7508 1082.53 73.7508 Q1075.57 73.7508 1071.43 69.8619 Q1067.34 65.9325 1067.34 59.3701 Q1067.34 51.7138 1072.45 47.825 Q1077.59 43.9361 1087.76 43.9361 L1098.21 43.9361 L1098.21 43.2069 Q1098.21 38.0623 1094.81 35.2672 Q1091.45 32.4315 1085.33 32.4315 Q1081.44 32.4315 1077.75 33.3632 Q1074.07 34.295 1070.66 36.1584 L1070.66 29.2718 Q1074.76 27.692 1078.6 26.9223 Q1082.45 26.1121 1086.1 26.1121 Q1095.94 26.1121 1100.8 31.2163 Q1105.66 36.3204 1105.66 46.6907 Z" fill="#000000" fill-rule="nonzero" fill-opacity="1" /><path clip-path="url(#clip290)" d="M1147.71 12.096 L1155.9 12.096 L1155.9 65.6895 L1185.35 65.6895 L1185.35 72.576 L1147.71 72.576 L1147.71 12.096 Z" fill="#000000" fill-rule="nonzero" fill-opacity="1" /><path clip-path="url(#clip290)" d="M1209.73 32.4315 Q1203.74 32.4315 1200.25 37.1306 Q1196.77 41.7891 1196.77 49.9314 Q1196.77 58.0738 1200.21 62.7728 Q1203.7 67.4314 1209.73 67.4314 Q1215.69 67.4314 1219.17 62.7323 Q1222.65 58.0333 1222.65 49.9314 Q1222.65 41.8701 1219.17 37.1711 Q1215.69 32.4315 1209.73 32.4315 M1209.73 26.1121 Q1219.45 26.1121 1225 32.4315 Q1230.55 38.7509 1230.55 49.9314 Q1230.55 61.0714 1225 67.4314 Q1219.45 73.7508 1209.73 73.7508 Q1199.97 73.7508 1194.42 67.4314 Q1188.91 61.0714 1188.91 49.9314 Q1188.91 38.7509 1194.42 32.4315 Q1199.97 26.1121 1209.73 26.1121 Z" fill="#000000" fill-rule="nonzero" fill-opacity="1" /><path clip-path="url(#clip290)" d="M1275.56 28.9478 L1275.56 35.9153 Q1272.4 34.1734 1269.2 33.3227 Q1266.04 32.4315 1262.8 32.4315 Q1255.55 32.4315 1251.54 37.0496 Q1247.53 41.6271 1247.53 49.9314 Q1247.53 58.2358 1251.54 62.8538 Q1255.55 67.4314 1262.8 67.4314 Q1266.04 67.4314 1269.2 66.5807 Q1272.4 65.6895 1275.56 63.9476 L1275.56 70.8341 Q1272.44 72.2924 1269.08 73.0216 Q1265.76 73.7508 1261.99 73.7508 Q1251.74 73.7508 1245.7 67.3098 Q1239.67 60.8689 1239.67 49.9314 Q1239.67 38.832 1245.74 32.472 Q1251.86 26.1121 1262.48 26.1121 Q1265.92 26.1121 1269.2 26.8413 Q1272.48 27.5299 1275.56 28.9478 Z" fill="#000000" fill-rule="nonzero" fill-opacity="1" /><path clip-path="url(#clip290)" d="M1309.14 49.7694 Q1300.11 49.7694 1296.62 51.8354 Q1293.14 53.9013 1293.14 58.8839 Q1293.14 62.8538 1295.73 65.2034 Q1298.37 67.5124 1302.86 67.5124 Q1309.06 67.5124 1312.79 63.1374 Q1316.55 58.7219 1316.55 51.4303 L1316.55 49.7694 L1309.14 49.7694 M1324.01 46.6907 L1324.01 72.576 L1316.55 72.576 L1316.55 65.6895 Q1314 69.8214 1310.19 71.8063 Q1306.39 73.7508 1300.88 73.7508 Q1293.91 73.7508 1289.78 69.8619 Q1285.69 65.9325 1285.69 59.3701 Q1285.69 51.7138 1290.79 47.825 Q1295.94 43.9361 1306.1 43.9361 L1316.55 43.9361 L1316.55 43.2069 Q1316.55 38.0623 1313.15 35.2672 Q1309.79 32.4315 1303.67 32.4315 Q1299.78 32.4315 1296.1 33.3632 Q1292.41 34.295 1289.01 36.1584 L1289.01 29.2718 Q1293.1 27.692 1296.95 26.9223 Q1300.8 26.1121 1304.44 26.1121 Q1314.29 26.1121 1319.15 31.2163 Q1324.01 36.3204 1324.01 46.6907 Z" fill="#000000" fill-rule="nonzero" fill-opacity="1" /><path clip-path="url(#clip290)" d="M1339.36 9.54393 L1346.82 9.54393 L1346.82 72.576 L1339.36 72.576 L1339.36 9.54393 Z" fill="#000000" fill-rule="nonzero" fill-opacity="1" /><path clip-path="url(#clip290)" d="M1362.41 27.2059 L1369.86 27.2059 L1369.86 72.576 L1362.41 72.576 L1362.41 27.2059 M1362.41 9.54393 L1369.86 9.54393 L1369.86 18.9825 L1362.41 18.9825 L1362.41 9.54393 Z" fill="#000000" fill-rule="nonzero" fill-opacity="1" /><path clip-path="url(#clip290)" d="M1392.83 14.324 L1392.83 27.2059 L1408.19 27.2059 L1408.19 32.9987 L1392.83 32.9987 L1392.83 57.6282 Q1392.83 63.1779 1394.33 64.7578 Q1395.87 66.3376 1400.53 66.3376 L1408.19 66.3376 L1408.19 72.576 L1400.53 72.576 Q1391.9 72.576 1388.62 69.3758 Q1385.34 66.1351 1385.34 57.6282 L1385.34 32.9987 L1379.87 32.9987 L1379.87 27.2059 L1385.34 27.2059 L1385.34 14.324 L1392.83 14.324 Z" fill="#000000" fill-rule="nonzero" fill-opacity="1" /><path clip-path="url(#clip290)" d="M1436.87 76.7889 Q1433.71 84.8907 1430.71 87.3618 Q1427.71 89.8329 1422.69 89.8329 L1416.73 89.8329 L1416.73 83.5945 L1421.11 83.5945 Q1424.19 83.5945 1425.89 82.1361 Q1427.59 80.6778 1429.66 75.2496 L1430.99 71.8468 L1412.64 27.2059 L1420.54 27.2059 L1434.72 62.6918 L1448.9 27.2059 L1456.8 27.2059 L1436.87 76.7889 Z" fill="#000000" fill-rule="nonzero" fill-opacity="1" /><polyline clip-path="url(#clip292)" style="stroke:#009af9; stroke-linecap:round; stroke-linejoin:round; stroke-width:8; stroke-opacity:1; fill:none" points="289.242,1009.41 468.693,1009.12 648.145,1009.41 827.596,1007.32 1007.05,1009.41 1186.5,994.277 1365.95,1009.41 1545.4,899.573 1724.85,1009.41 1904.3,143.404 "/>
<polyline clip-path="url(#clip292)" style="stroke:#e26f46; stroke-linecap:round; stroke-linejoin:round; stroke-width:8; stroke-opacity:1; fill:none" points="289.242,143.404 468.693,1009.41 648.145,899.573 827.596,1009.41 1007.05,994.277 1186.5,1009.41 1365.95,1007.32 1545.4,1009.41 1724.85,1009.12 1904.3,1009.41 "/>
<path clip-path="url(#clip290)" d="M1698.59 303.543 L1895.69 303.543 L1895.69 148.023 L1698.59 148.023  Z" fill="#ffffff" fill-rule="evenodd" fill-opacity="1"/>
<polyline clip-path="url(#clip290)" style="stroke:#000000; stroke-linecap:round; stroke-linejoin:round; stroke-width:4; stroke-opacity:1; fill:none" points="1698.59,303.543 1895.69,303.543 1895.69,148.023 1698.59,148.023 1698.59,303.543 "/>
<polyline clip-path="url(#clip290)" style="stroke:#009af9; stroke-linecap:round; stroke-linejoin:round; stroke-width:8; stroke-opacity:1; fill:none" points="1717.61,199.863 1831.74,199.863 "/>
<path clip-path="url(#clip290)" d="M1858.38 195.291 L1864.05 211.31 L1872.15 191.217 L1876.67 191.217 L1866.18 217.143 L1866.18 227.004 L1861.92 227.004 L1861.92 217.143 L1855.12 197.791 Q1854.1 194.875 1851.9 194.875 L1850.77 194.875 L1850.77 191.217 L1852.39 191.217 Q1856.95 191.217 1858.38 195.291 Z" fill="#000000" fill-rule="nonzero" fill-opacity="1" /><polyline clip-path="url(#clip290)" style="stroke:#e26f46; stroke-linecap:round; stroke-linejoin:round; stroke-width:8; stroke-opacity:1; fill:none" points="1717.61,251.703 1831.74,251.703 "/>
<path clip-path="url(#clip290)" d="M1858.38 247.131 L1864.05 263.15 L1872.15 243.057 L1876.67 243.057 L1866.18 268.983 L1866.18 278.844 L1861.92 278.844 L1861.92 268.983 L1855.12 249.631 Q1854.1 246.715 1851.9 246.715 L1850.77 246.715 L1850.77 243.057 L1852.39 243.057 Q1856.95 243.057 1858.38 247.131 Z" fill="#000000" fill-rule="nonzero" fill-opacity="1" /><path clip-path="url(#clip290)" d="M1866.09 237.27 L1864.77 235.997 Q1864.26 235.534 1863.89 235.326 Q1863.5 235.094 1863.2 235.094 Q1862.32 235.094 1861.9 235.951 Q1861.48 236.784 1861.44 238.682 L1858.54 238.682 Q1858.59 235.557 1859.77 233.867 Q1860.95 232.154 1863.06 232.154 Q1863.94 232.154 1864.68 232.478 Q1865.42 232.803 1866.28 233.566 L1867.59 234.84 Q1868.1 235.303 1868.5 235.534 Q1868.87 235.742 1869.17 235.742 Q1870.05 235.742 1870.46 234.909 Q1870.88 234.053 1870.93 232.154 L1873.82 232.154 Q1873.78 235.279 1872.59 236.992 Q1871.41 238.682 1869.31 238.682 Q1868.43 238.682 1867.69 238.358 Q1866.95 238.034 1866.09 237.27 Z" fill="#000000" fill-rule="nonzero" fill-opacity="1" /></svg>
